<svg width="31" height="31" viewBox="0 0 31 31" fill="none" xmlns="http://www.w3.org/2000/svg">
<g clip-path="url(#clip0_1688_4647)">
<path d="M22.6293 0.811523H7.6297C3.50517 0.811523 0.129883 4.18681 0.129883 8.31134V23.3117C0.129883 27.4351 3.50517 30.8115 7.6297 30.8115H22.6293C26.7539 30.8115 30.1292 27.4351 30.1292 23.3117V8.31134C30.1292 4.18681 26.7539 0.811523 22.6293 0.811523ZM27.6291 23.3117C27.6291 26.0679 25.3871 28.3115 22.6293 28.3115H7.6297C4.87315 28.3115 2.62994 26.0679 2.62994 23.3117V8.31134C2.62994 5.55443 4.87315 3.31158 7.6297 3.31158H22.6293C25.3871 3.31158 27.6291 5.55443 27.6291 8.31134V23.3117Z" fill="white"/>
<path d="M23.2558 9.56143C24.2913 9.56143 25.1308 8.72199 25.1308 7.68648C25.1308 6.65097 24.2913 5.81152 23.2558 5.81152C22.2203 5.81152 21.3809 6.65097 21.3809 7.68648C21.3809 8.72199 22.2203 9.56143 23.2558 9.56143Z" fill="white"/>
<path d="M15.1297 8.31152C10.9868 8.31152 7.62988 11.6688 7.62988 15.8113C7.62988 19.9524 10.9868 23.3119 15.1297 23.3119C19.2714 23.3119 22.6295 19.9524 22.6295 15.8113C22.6295 11.6688 19.2714 8.31152 15.1297 8.31152ZM15.1297 20.8118C12.3686 20.8118 10.1299 18.5732 10.1299 15.8113C10.1299 13.0495 12.3686 10.8116 15.1297 10.8116C17.8908 10.8116 20.1295 13.0495 20.1295 15.8113C20.1295 18.5732 17.8908 20.8118 15.1297 20.8118Z" fill="white"/>
</g>
<defs>
<clipPath id="clip0_1688_4647">
<rect width="30" height="30" fill="white" transform="translate(0.129883 0.811523)"/>
</clipPath>
</defs>
</svg>
