<svg width="31" height="31" viewBox="0 0 31 31" fill="none" xmlns="http://www.w3.org/2000/svg">
<g clip-path="url(#clip0_1688_4657)">
<path d="M26.1591 0.811523H4.34091C3.25593 0.811523 2.21539 1.24253 1.4482 2.00972C0.681005 2.77692 0.25 3.81746 0.25 4.90243L0.25 26.7206C0.25 27.8056 0.681005 28.8461 1.4482 29.6133C2.21539 30.3805 3.25593 30.8115 4.34091 30.8115H26.1591C27.2441 30.8115 28.2846 30.3805 29.0518 29.6133C29.819 28.8461 30.25 27.8056 30.25 26.7206V4.90243C30.25 3.81746 29.819 2.77692 29.0518 2.00972C28.2846 1.24253 27.2441 0.811523 26.1591 0.811523ZM10.4773 24.5524C10.4775 24.6356 10.4613 24.718 10.4296 24.795C10.3979 24.8719 10.3514 24.9418 10.2927 25.0007C10.2339 25.0596 10.1641 25.1063 10.0873 25.1382C10.0104 25.1701 9.92808 25.1865 9.84489 25.1865H7.15C7.06667 25.1867 6.98411 25.1705 6.90708 25.1387C6.83005 25.1069 6.76005 25.0602 6.70113 25.0013C6.6422 24.9424 6.5955 24.8724 6.56372 24.7954C6.53193 24.7183 6.51568 24.6358 6.51591 24.5524V13.2547C6.51591 13.0865 6.58272 12.9253 6.70163 12.8063C6.82055 12.6874 6.98183 12.6206 7.15 12.6206H9.84489C10.0128 12.6211 10.1736 12.6881 10.2922 12.8069C10.4107 12.9258 10.4773 13.0868 10.4773 13.2547V24.5524ZM8.49659 11.5502C7.9909 11.5502 7.49657 11.4002 7.0761 11.1193C6.65563 10.8383 6.32792 10.439 6.1344 9.97179C5.94088 9.5046 5.89025 8.99051 5.9889 8.49453C6.08756 7.99856 6.33107 7.54298 6.68865 7.1854C7.04623 6.82782 7.50181 6.58431 7.99778 6.48565C8.49375 6.387 9.00784 6.43763 9.47504 6.63115C9.94224 6.82467 10.3416 7.15238 10.6225 7.57285C10.9035 7.99332 11.0534 8.48765 11.0534 8.99334C11.0534 9.67145 10.784 10.3218 10.3045 10.8013C9.82504 11.2808 9.1747 11.5502 8.49659 11.5502ZM24.5636 24.5968C24.5639 24.6734 24.5489 24.7493 24.5197 24.8201C24.4905 24.8909 24.4476 24.9553 24.3934 25.0095C24.3392 25.0636 24.2749 25.1066 24.204 25.1358C24.1332 25.165 24.0573 25.1799 23.9807 25.1797H21.083C21.0063 25.1799 20.9304 25.165 20.8596 25.1358C20.7888 25.1066 20.7244 25.0636 20.6702 25.0095C20.6161 24.9553 20.5731 24.8909 20.5439 24.8201C20.5147 24.7493 20.4998 24.6734 20.5 24.5968V19.3041C20.5 18.5132 20.7318 15.8405 18.4324 15.8405C16.6511 15.8405 16.2881 17.6695 16.2165 18.4911V24.6036C16.2165 24.7567 16.1562 24.9037 16.0488 25.0128C15.9413 25.1219 15.7952 25.1843 15.642 25.1865H12.8432C12.7667 25.1865 12.691 25.1714 12.6204 25.1421C12.5497 25.1128 12.4856 25.0698 12.4316 25.0157C12.3776 24.9615 12.3348 24.8972 12.3057 24.8265C12.2766 24.7558 12.2617 24.68 12.2619 24.6036V13.2053C12.2617 13.1288 12.2766 13.053 12.3057 12.9823C12.3348 12.9116 12.3776 12.8473 12.4316 12.7932C12.4856 12.739 12.5497 12.696 12.6204 12.6667C12.691 12.6374 12.7667 12.6223 12.8432 12.6223H15.642C15.7967 12.6223 15.9449 12.6837 16.0543 12.7931C16.1636 12.9024 16.225 13.0507 16.225 13.2053V14.1905C16.8864 13.1968 17.8665 12.4331 19.958 12.4331C24.5909 12.4331 24.5602 16.7593 24.5602 19.1354L24.5636 24.5968Z" fill="white"/>
</g>
<defs>
<clipPath id="clip0_1688_4657">
<rect width="30" height="30" fill="white" transform="translate(0.25 0.811523)"/>
</clipPath>
</defs>
</svg>
